<svg width="64" height="60" viewBox="0 0 64 60" fill="none" xmlns="http://www.w3.org/2000/svg">
<path d="M62.0333 11.1869H43.6852C43.4305 8.13701 42.039 5.29421 39.7867 3.22213C37.5344 1.15005 34.5856 0 31.5251 0C28.4647 0 25.5159 1.15005 23.2636 3.22213C21.0112 5.29421 19.6198 8.13701 19.3651 11.1869H15.2541C14.9844 11.1869 14.7257 11.294 14.535 11.4847C14.3443 11.6754 14.2372 11.9341 14.2372 12.2038V29.0418L10.7656 32.5426H1.01694C0.747231 32.5426 0.488568 32.6498 0.297855 32.8405C0.107142 33.0312 0 33.2898 0 33.5596V50.8475C0 51.1172 0.107142 51.3759 0.297855 51.5666C0.488568 51.7573 0.747231 51.8645 1.01694 51.8645H10.7656L12.5007 53.6009C12.6917 53.7915 12.9505 53.8985 13.2202 53.8984H14.2372V58.9831C14.2372 59.2528 14.3443 59.5114 14.535 59.7021C14.7257 59.8929 14.9844 60 15.2541 60H62.0333C62.3031 60 62.5617 59.8929 62.7524 59.7021C62.9431 59.5114 63.0503 59.2528 63.0503 58.9831V12.2038C63.0503 11.9341 62.9431 11.6754 62.7524 11.4847C62.5617 11.294 62.3031 11.1869 62.0333 11.1869ZM44.7454 13.2208V30.7897L39.1484 27.5914C38.9946 27.5039 38.8207 27.4579 38.6437 27.4579C38.4668 27.4579 38.2929 27.5039 38.1391 27.5914L32.5421 30.7897V24.3639C35.4157 24.1199 38.1104 22.8675 40.1496 20.8283C42.1888 18.789 43.4412 16.0943 43.6852 13.2208H44.7454ZM31.5251 2.03442C33.5365 2.03442 35.5026 2.63084 37.175 3.74827C38.8473 4.8657 40.1507 6.45394 40.9204 8.31216C41.6901 10.1704 41.8915 12.2151 41.4991 14.1878C41.1068 16.1604 40.1382 17.9725 38.716 19.3947C37.2938 20.8169 35.4818 21.7854 33.5091 22.1778C31.5364 22.5702 29.4917 22.3688 27.6335 21.5991C25.7753 20.8294 24.187 19.526 23.0696 17.8536C21.9522 16.1813 21.3557 14.2151 21.3557 12.2038C21.3589 9.50768 22.4313 6.92288 24.3377 5.01642C26.2442 3.10997 28.829 2.03755 31.5251 2.03442ZM2.03388 34.5765H11.1863C11.4561 34.5766 11.7149 34.4696 11.9058 34.279L14.2372 31.9414V34.1265L10.7656 37.6273H2.03388V34.5765ZM13.641 51.8645L11.9058 50.1281C11.7149 49.9375 11.4561 49.8305 11.1863 49.8306H2.03388V39.6612H11.1863C11.4561 39.6613 11.7149 39.5543 11.9058 39.3637L18.6863 32.5032C18.877 32.3126 19.1355 32.2056 19.4051 32.2056C19.6747 32.2056 19.9333 32.3126 20.124 32.5032C20.2185 32.5973 20.2936 32.7092 20.3449 32.8324C20.3961 32.9556 20.4226 33.0877 20.4227 33.2212C20.4228 33.3546 20.3966 33.4868 20.3456 33.61C20.2945 33.7333 20.2197 33.8453 20.1252 33.9396C20.1189 33.9473 20.1125 33.9536 20.1062 33.96L18.2566 35.91C18.1196 36.0542 18.0279 36.2354 17.9929 36.4312C17.9578 36.627 17.981 36.8288 18.0594 37.0116C18.1379 37.1943 18.2683 37.3501 18.4343 37.4595C18.6004 37.569 18.795 37.6273 18.9939 37.6273H30.5082C30.7779 37.6273 31.0366 37.7345 31.2273 37.9252C31.418 38.1159 31.5251 38.3745 31.5251 38.6443C31.5251 38.914 31.418 39.1726 31.2273 39.3633C31.0366 39.5541 30.7779 39.6612 30.5082 39.6612H22.3727C22.103 39.6612 21.8443 39.7683 21.6536 39.9591C21.4629 40.1498 21.3557 40.4084 21.3557 40.6781C21.3557 40.9478 21.4629 41.2065 21.6536 41.3972C21.8443 41.5879 22.103 41.6951 22.3727 41.6951H34.576C34.7096 41.6949 34.8419 41.7211 34.9653 41.7721C35.0888 41.8232 35.201 41.8981 35.2955 41.9925C35.3899 42.087 35.4648 42.1992 35.5159 42.3226C35.5669 42.4461 35.5931 42.5784 35.5929 42.712C35.5925 42.9816 35.4853 43.2401 35.2946 43.4307C35.104 43.6213 34.8456 43.7286 34.576 43.729H22.3727C22.103 43.729 21.8443 43.8361 21.6536 44.0268C21.4629 44.2175 21.3557 44.4762 21.3557 44.7459C21.3557 45.0156 21.4629 45.2743 21.6536 45.465C21.8443 45.6557 22.103 45.7628 22.3727 45.7628H30.5082C30.7779 45.7628 31.0366 45.87 31.2273 46.0607C31.418 46.2514 31.5251 46.5101 31.5251 46.7798C31.5251 47.0495 31.418 47.3082 31.2273 47.4989C31.0366 47.6896 30.7779 47.7967 30.5082 47.7967H22.3727C22.103 47.7967 21.8443 47.9039 21.6536 48.0946C21.4629 48.2853 21.3557 48.5439 21.3557 48.8137C21.3557 49.0834 21.4629 49.342 21.6536 49.5327C21.8443 49.7235 22.103 49.8306 22.3727 49.8306H28.4743C28.744 49.8306 29.0027 49.9377 29.1934 50.1285C29.3841 50.3192 29.4913 50.5778 29.4913 50.8475C29.4913 51.1172 29.3841 51.3759 29.1934 51.5666C29.0027 51.7573 28.744 51.8645 28.4743 51.8645H13.641ZM61.0164 57.9661H16.271V53.8984H28.4743C28.9721 53.8985 29.4623 53.7768 29.9022 53.5439C30.3421 53.311 30.7183 52.974 30.998 52.5623C31.2777 52.1505 31.4524 51.6766 31.5069 51.1818C31.5613 50.6871 31.4938 50.1865 31.3103 49.7238C31.7151 49.6133 32.0928 49.4206 32.4198 49.1576C32.7467 48.8946 33.0159 48.5671 33.2106 48.1953C33.4053 47.8236 33.5213 47.4158 33.5512 46.9972C33.5812 46.5787 33.5246 46.1585 33.3849 45.7628H34.576C35.3851 45.7628 36.1611 45.4414 36.7332 44.8693C37.3054 44.2971 37.6268 43.5211 37.6268 42.712C37.6268 41.9029 37.3054 41.1269 36.7332 40.5548C36.1611 39.9826 35.3851 39.6612 34.576 39.6612H33.3849C33.5474 39.201 33.5972 38.7086 33.53 38.2252C33.4629 37.7418 33.2808 37.2815 32.999 36.8831C32.7172 36.4846 32.3439 36.1595 31.9105 35.9351C31.4771 35.7107 30.9962 35.5936 30.5082 35.5934H21.3596L21.5718 35.3697C22.135 34.7942 22.4478 34.0193 22.442 33.2141C22.4362 32.4088 22.1123 31.6385 21.5409 31.0712C20.9695 30.5038 20.1969 30.1853 19.3917 30.1852C18.5864 30.1851 17.8138 30.5034 17.2422 31.0706L16.271 32.0583V13.2208H19.3651C19.6091 16.0943 20.8615 18.789 22.9007 20.8283C24.9399 22.8675 27.6346 24.1199 30.5082 24.3639V32.5426C30.5081 32.7208 30.5548 32.8959 30.6437 33.0503C30.7325 33.2048 30.8604 33.3332 31.0145 33.4226C31.1686 33.5121 31.3435 33.5595 31.5217 33.5601C31.6999 33.5607 31.8751 33.5145 32.0298 33.4261L38.6437 29.6456L45.2576 33.4261C45.4123 33.5145 45.5876 33.5607 45.7658 33.5601C45.9439 33.5595 46.1188 33.5121 46.2729 33.4226C46.427 33.3332 46.5549 33.2048 46.6438 33.0503C46.7326 32.8959 46.7793 32.7208 46.7792 32.5426V13.2208H61.0164V57.9661Z" fill="#9B38DC"/>
<path d="M44.7455 46.7798C44.4757 46.7798 44.2171 46.8869 44.0264 47.0776C43.8357 47.2684 43.7285 47.527 43.7285 47.7967V54.9153C43.7285 55.185 43.8357 55.4437 44.0264 55.6344C44.2171 55.8251 44.4757 55.9322 44.7455 55.9322H57.9657C58.2354 55.9322 58.4941 55.8251 58.6848 55.6344C58.8755 55.4437 58.9826 55.185 58.9826 54.9153V47.7967C58.9826 47.527 58.8755 47.2684 58.6848 47.0776C58.4941 46.8869 58.2354 46.7798 57.9657 46.7798H44.7455ZM56.9487 53.8984H45.7624V48.8137H56.9487V53.8984Z" fill="#9B38DC"/>
<path d="M25.8301 14.0343L29.8979 17.0851C30.103 17.239 30.3588 17.3097 30.6139 17.283C30.869 17.2563 31.1045 17.1343 31.2734 16.9412L38.392 8.80571C38.5696 8.60272 38.6593 8.33749 38.6413 8.06837C38.6234 7.79925 38.4993 7.54828 38.2963 7.37068C38.0933 7.19308 37.8281 7.10339 37.5589 7.12134C37.2898 7.13929 37.0389 7.26341 36.8612 7.4664L30.3638 14.8921L27.0504 12.4072C26.9436 12.3271 26.822 12.2688 26.6927 12.2356C26.5633 12.2025 26.4287 12.1952 26.2965 12.214C26.1643 12.2329 26.0371 12.2777 25.9222 12.3457C25.8072 12.4137 25.7069 12.5038 25.6267 12.6106C25.5466 12.7174 25.4883 12.839 25.4552 12.9684C25.422 13.0977 25.4147 13.2324 25.4336 13.3646C25.4524 13.4968 25.4972 13.624 25.5652 13.7389C25.6333 13.8538 25.7233 13.9542 25.8301 14.0343Z" fill="#9B38DC"/>
</svg>
