<svg width="48" height="48" viewBox="0 0 48 48" fill="none" xmlns="http://www.w3.org/2000/svg">
<rect x="1" y="1" width="46" height="46" rx="4" stroke="#9B38DC" stroke-width="2"/>
<path d="M33.0665 27.9129C33.3853 27.9129 33.6642 27.6965 33.7462 27.3883L35.9766 18.9887C36.0306 18.7851 35.9905 18.5674 35.8673 18.3966C35.744 18.2255 35.5507 18.1186 35.3403 18.1056L16.0968 16.9169L15.575 13.7045C15.5391 13.4838 15.4003 13.2932 15.2011 13.1912L13.0236 12.0772C12.6779 11.9005 12.2542 12.0373 12.0773 12.383C11.9004 12.7287 12.0374 13.1522 12.3831 13.3291L14.244 14.2813L16.3437 27.207L15.9906 29.4345C14.669 29.6607 13.6597 30.8144 13.6597 32.2003C13.6597 33.7481 14.9182 35.015 16.4651 35.015C17.8975 35.015 19.082 33.9129 19.2492 32.5535H28.849C29.0162 33.9129 30.2007 35.015 31.6331 35.015C33.18 35.015 34.4385 33.752 34.4385 32.2042C34.4385 30.6566 33.18 29.4032 31.6331 29.4032C30.4644 29.4032 29.4608 30.116 29.0396 31.1473H19.0586C18.755 30.3973 18.1485 29.8286 17.3958 29.5627L17.6563 27.9129H33.0665ZM31.6331 30.7998C32.4046 30.7998 33.0323 31.428 33.0323 32.2003C33.0323 32.9727 32.4046 33.6011 31.6331 33.6011C30.8619 33.6011 30.2342 32.9727 30.2342 32.2003C30.2342 31.428 30.8619 30.7998 31.6331 30.7998ZM17.864 32.2003C17.864 32.9727 17.2365 33.6011 16.4651 33.6011C15.6936 33.6011 15.0659 32.9727 15.0659 32.2003C15.0659 31.428 15.6936 30.7998 16.4651 30.7998C17.2365 30.7998 17.864 31.428 17.864 32.2003ZM16.3279 18.342L34.3971 19.4591L32.5258 26.5067H17.6538L16.3279 18.342Z" fill="#9B38DC" stroke="#9B38DC" stroke-width="0.5"/>
</svg>
