<svg width="80" height="80" viewBox="0 0 80 80" fill="none" xmlns="http://www.w3.org/2000/svg">
<path d="M75.9968 61.2664H73.4793L77.3286 22.7349C77.3638 22.3597 77.2376 21.9871 76.982 21.7094C76.7232 21.4453 76.3662 21.3003 75.9968 21.3101H32.0448V2.66376H44.0317V11.9869C44.0317 12.7224 44.628 13.3188 45.3636 13.3188H56.0186C56.7541 13.3188 57.3505 12.7224 57.3505 11.9869V2.66376H69.3374V17.3144C69.3374 18.0499 69.9337 18.6463 70.6693 18.6463C71.4048 18.6463 72.0011 18.0499 72.0011 17.3144V1.33188C72.0011 0.596354 71.4048 0 70.6693 0H30.7129C29.9774 0 29.381 0.596354 29.381 1.33188V21.3101H19.7112L19.0986 17.3144C18.7917 14.9251 17.2179 12.8876 14.9833 11.9869L5.66019 8.27091C3.82495 7.52824 1.72048 8.20653 0.665644 9.88244C0.0569342 10.8865 -0.078985 12.1066 0.293004 13.2199C0.664994 14.3333 1.50717 15.2262 2.59713 15.6626L11.3077 19.1523L13.2652 32.1647C13.3757 32.9003 14.0612 33.4075 14.7967 33.297C15.5322 33.1864 16.0395 32.501 15.9289 31.7654L13.9714 18.753C13.8297 17.8158 13.2008 17.0244 12.3196 16.6751L3.58238 13.1855C3.21819 13.0417 2.9353 12.7445 2.80979 12.3732C2.68687 11.9986 2.73565 11.5896 2.9431 11.2546C3.33721 10.6921 4.07598 10.4905 4.70095 10.7747L14.0241 14.4907C15.3404 15.0188 16.2781 16.205 16.4882 17.6077L23.2679 62.7583C23.3674 63.4151 23.9352 63.8977 24.5998 63.8905H25.2521L25.3854 63.9302H75.9968C76.7323 63.9302 77.3286 64.5265 77.3286 65.2621C77.3286 65.9976 76.7323 66.5939 75.9968 66.5939H24.5595C22.5669 66.6167 20.863 65.1678 20.5638 63.1979L16.7015 37.093C16.6521 36.7405 16.4641 36.4225 16.1786 36.2098C15.8932 35.9971 15.5348 35.9074 15.183 35.9607C14.8331 36.0134 14.5184 36.2026 14.3089 36.4875C14.0989 36.7723 14.0111 37.1294 14.0644 37.4792L17.9671 63.5439C18.4372 66.8235 21.2467 69.2583 24.5595 69.2577H28.1155C26.024 71.9988 26.3706 75.8839 28.9154 78.2115C31.4595 80.5383 35.3602 80.5383 37.9043 78.2115C40.449 75.8839 40.7956 71.9988 38.7042 69.2577H60.1475C58.0249 71.993 58.352 75.8982 60.9 78.242C63.4486 80.5858 67.3682 80.5858 69.9162 78.242C72.4648 75.8982 72.7919 71.993 70.6693 69.2577H75.9968C78.2033 69.2577 79.9924 67.4686 79.9924 65.2621C79.9924 63.0555 78.2033 61.2664 75.9968 61.2664ZM54.6867 2.66376V10.655H46.6954V2.66376H54.6867ZM66.6736 61.2664H63.6769L64.7955 42.6201H66.6736V61.2664ZM50.6911 61.2664H44.418L44.0317 46.6158C44.0317 45.8802 43.4353 45.2839 42.6998 45.2839C41.9643 45.2839 41.3679 45.8802 41.3679 46.6158L41.7542 61.2664H34.7885L33.097 42.6201H50.9837L50.6911 61.2664ZM53.7008 42.6201H62.185L61.0528 61.2664H53.3548L53.7008 42.6201ZM30.4196 42.6201L32.1111 61.2664H26.7173V42.6201H30.4196ZM64.9554 39.9564L65.9277 23.9738H69.3374V39.9564H64.9554ZM62.5447 35.8807L62.2917 39.9564H53.7008L53.9941 23.9738H63.3173L62.5447 35.8807ZM40.7417 23.9738L41.048 35.9607C41.0701 36.6962 41.6846 37.2744 42.4202 37.2529C43.1557 37.2308 43.7338 36.6163 43.7117 35.8807L43.3657 23.8938H51.357L51.0637 39.8764H32.857L32.0448 31.0325V23.9738H40.7417ZM28.7548 23.9738L29.381 31.0995V39.9564H25.3854C24.6499 39.9564 24.0535 40.5527 24.0535 41.2882V50.2387L20.0579 23.9738H28.7548ZM69.3374 61.2664V42.6201H70.6693C71.4048 42.6201 72.0011 42.0238 72.0011 41.2882V23.9738H74.5186L70.7889 61.2664H69.3374ZM33.3767 77.249C31.1701 77.249 29.381 75.4599 29.381 73.2533C29.381 71.0468 31.1701 69.2577 33.3767 69.2577C35.5832 69.2577 37.3723 71.0468 37.3723 73.2533C37.3723 75.4599 35.5832 77.249 33.3767 77.249ZM65.3417 77.249C63.1352 77.249 61.3461 75.4599 61.3461 73.2533C61.3461 71.0468 63.1352 69.2577 65.3417 69.2577C67.5483 69.2577 69.3374 71.0468 69.3374 73.2533C69.3374 75.4599 67.5483 77.249 65.3417 77.249Z" fill="white"/>
<path d="M34.7087 73.2533C34.7087 73.9888 34.1123 74.5851 33.3768 74.5851C32.6413 74.5851 32.0449 73.9888 32.0449 73.2533C32.0449 72.5177 32.6413 71.9214 33.3768 71.9214C34.1123 71.9214 34.7087 72.5177 34.7087 73.2533Z" fill="white"/>
<path d="M66.6735 73.2533C66.6735 73.9888 66.0772 74.5851 65.3416 74.5851C64.6061 74.5851 64.0098 73.9888 64.0098 73.2533C64.0098 72.5177 64.6061 71.9214 65.3416 71.9214C66.0772 71.9214 66.6735 72.5177 66.6735 73.2533Z" fill="white"/>
</svg>
