<svg width="84" height="84" viewBox="0 0 84 84" fill="none" xmlns="http://www.w3.org/2000/svg">
<g clip-path="url(#clip0_1603_3124)">
<path d="M71.75 41.37C70.784 41.37 70 40.586 70 39.62V8.75C70 5.8555 67.6445 3.5 64.75 3.5H19.25C16.3555 3.5 14 5.8555 14 8.75V39.62C14 40.586 13.216 41.37 12.25 41.37C11.284 41.37 10.5 40.5895 10.5 39.62V8.75C10.5 3.9235 14.4235 0 19.25 0H64.75C69.5765 0 73.5 3.9235 73.5 8.75V39.62C73.5 40.5895 72.716 41.37 71.75 41.37Z" fill="white"/>
<path d="M42 55.9789C40.6105 55.9789 39.221 55.6464 37.954 54.9884L0.941493 35.6754C0.0839933 35.2274 -0.248507 34.1704 0.199493 33.3129C0.647493 32.4554 1.70799 32.1334 2.56199 32.5709L39.5745 51.8839C41.0935 52.6784 42.91 52.6784 44.429 51.8839L81.4415 32.5709C82.2955 32.1334 83.3595 32.4519 83.804 33.3129C84.252 34.1704 83.9195 35.2274 83.062 35.6754L46.0495 54.9884C44.779 55.6464 43.386 55.9789 42 55.9789V55.9789Z" fill="white"/>
<path d="M77 80.5001H7C3.1395 80.5001 0 77.3606 0 73.5001V29.4351C0 26.8171 1.4455 24.4371 3.7765 23.2296L11.4415 19.2396C12.292 18.8021 13.356 19.1206 13.8005 19.9851C14.2485 20.8426 13.916 21.8996 13.055 22.3441L5.39 26.3341C4.2245 26.9396 3.5 28.1261 3.5 29.4351V73.5001C3.5 75.4321 5.068 77.0001 7 77.0001H77C78.932 77.0001 80.5 75.4321 80.5 73.5001V29.4351C80.5 28.1261 79.7755 26.9396 78.61 26.3306L70.945 22.3406C70.0875 21.8961 69.7515 20.8391 70.1995 19.9816C70.6475 19.1206 71.715 18.8021 72.5585 19.2361L80.2235 23.2261C82.5545 24.4371 84 26.8171 84 29.4351V73.5001C84 77.3606 80.8605 80.5001 77 80.5001Z" fill="white"/>
<path d="M61.25 38.7592C61.0925 38.7592 60.935 38.7382 60.7775 38.6927L22.2775 27.9337C21.5215 27.7237 21 27.0377 21 26.2502V19.2502C21 18.4592 21.5285 17.7697 22.288 17.5632L60.788 7.06321C61.3235 6.92321 61.88 7.03171 62.314 7.36071C62.748 7.68971 63 8.20421 63 8.75021V37.0092C63 37.5552 62.7445 38.0732 62.3105 38.4022C61.999 38.6367 61.628 38.7592 61.25 38.7592ZM24.5 24.9202L59.5 34.7027V11.0392L24.5 20.5872V24.9202Z" fill="white"/>
<path d="M61.25 40.25C60.284 40.25 59.5 39.466 59.5 38.5V7C59.5 6.034 60.284 5.25 61.25 5.25C62.216 5.25 63 6.034 63 7V38.5C63 39.466 62.216 40.25 61.25 40.25Z" fill="white"/>
<path d="M22.75 29.75C21.784 29.75 21 28.966 21 28V17.5C21 16.534 21.784 15.75 22.75 15.75C23.716 15.75 24.5 16.534 24.5 17.5V28C24.5 28.966 23.716 29.75 22.75 29.75Z" fill="white"/>
<path d="M35 40.4249C31.1395 40.4249 28 37.2854 28 33.4249C28 30.9119 29.337 28.6089 31.4895 27.4119C32.3295 26.9534 33.4005 27.2474 33.873 28.0909C34.342 28.9379 34.0375 30.0019 33.194 30.4744C32.1335 31.0624 31.5 32.1614 31.5 33.4249C31.5 35.3569 33.068 36.9249 35 36.9249C36.932 36.9249 38.5 35.3569 38.5 33.4249C38.5 32.8089 38.3705 32.3014 38.0975 31.8674C37.5865 31.0484 37.8385 29.9669 38.6575 29.4559C39.4695 28.9519 40.5545 29.1969 41.069 30.0159C41.685 31.0029 42 32.1544 42 33.4249C42 37.2819 38.8605 40.4249 35 40.4249Z" fill="white"/>
</g>
<defs>
<clipPath id="clip0_1603_3124">
<rect width="84" height="84" fill="white"/>
</clipPath>
</defs>
</svg>
