<svg width="78" height="78" viewBox="0 0 78 78" fill="none" xmlns="http://www.w3.org/2000/svg">
<path d="M75.25 75.25V37.75H72.75V32.75H70.25V25.25H67.75V20.25H65.25V25.25H62.75V32.75H60.25V4.975L52.75 6.475V2.75H50.25V6.975L47.75 7.475V0.25H45.25V7.975L42.75 8.475V2.75H40.25V8.97625L32.75 10.4762V17.75H10.25V20.25H12.75V35.3637C12.34 35.2962 11.925 35.25 11.5 35.25C6.67625 35.25 2.75 39.7363 2.75 45.25C2.75 50.2775 6.0175 54.4388 10.25 55.1363V56.765C9.20375 55.8188 7.9075 55.25 6.5 55.25C3.05375 55.25 0.25 58.6137 0.25 62.75C0.25 66.3725 2.40125 69.4013 5.25 70.0988V75.25H0.25V77.75H77.75V75.25H75.25ZM20.25 74C20.25 71.9325 21.9325 70.25 24 70.25C25.35 70.25 26.6025 70.9813 27.2687 72.1588L27.6562 72.845L29 72.75C29.3675 72.75 29.755 72.8213 30.185 72.9663L31.4 73.3738L31.7787 72.15C32.5925 69.5188 34.9925 67.75 37.75 67.75C40.0225 67.75 42.12 68.9888 43.2238 70.9838L44.005 72.3988L45.1775 71.2862C46.5863 69.9512 48.9125 69.9512 50.3212 71.2862L51.4937 72.3988L52.275 70.9838C53.38 68.9888 55.4775 67.75 57.75 67.75C60.4638 67.75 62.8512 69.485 63.6912 72.0675L64.0425 73.1463L65.1513 72.9012C67.6288 72.3512 70.05 73.3712 71.4738 75.25H20.4925C20.35 74.8475 20.25 74.4312 20.25 74V74ZM72.75 40.25V72.9213C72.025 72.1788 71.1837 71.5675 70.25 71.12V42.75H52.75V66.8375C52.0488 67.3275 51.41 67.91 50.8725 68.5925C50.6725 68.4762 50.4625 68.3775 50.25 68.2863V40.25H72.75ZM57.75 65.25C56.89 65.25 56.0512 65.39 55.25 65.63V45.25H60.25V65.6125C59.4537 65.3763 58.6137 65.25 57.75 65.25ZM62.75 45.25H67.75V70.3675C67.0713 70.2688 66.38 70.2213 65.6738 70.29C65.0125 68.8738 63.99 67.7013 62.75 66.835V45.25ZM52.75 37.75V35.25H70.25V37.75H52.75ZM65.25 27.75H67.75V32.75H65.25V27.75ZM57.75 8.025V32.75H50.25V37.75H47.75V67.7687C46.66 67.7687 45.5712 68.0437 44.6275 68.5925C42.9837 66.5037 40.4562 65.25 37.75 65.25C36.885 65.25 36.045 65.375 35.25 65.6087V12.5238L57.75 8.025ZM15.25 20.25H32.75V66.8263C31.5 67.6963 30.4725 68.88 29.8113 70.3125C29.5475 70.2762 29.28 70.2562 29.0025 70.2537C27.8313 68.6925 25.9787 67.75 24 67.75C20.5538 67.75 17.75 70.5538 17.75 74C17.75 74.4225 17.8063 74.8388 17.89 75.25H12.75V70.7112L20.25 61.9625V58.8863C24.4825 58.1888 27.75 54.0275 27.75 49C27.75 45.2375 25.92 41.9563 23.2263 40.25H25.25V37.75H22.75V39.9788C21.6112 39.3575 20.3425 39 19 39C18.785 39 18.565 39.0137 18.3425 39.035C17.5162 37.8487 16.4588 36.8875 15.25 36.2288V20.25ZM20.25 45.25C20.25 43.9375 20.0212 42.6862 19.6175 41.5375C22.775 41.9112 25.25 45.115 25.25 49C25.25 53.1363 22.4462 56.5 19 56.5C17.4225 56.5 15.9237 55.7737 14.78 54.5137C17.9825 53.0275 20.25 49.4375 20.25 45.25ZM12.75 55.9763C14.0912 57.5488 15.84 58.5762 17.75 58.89V61.0388L12.75 66.8725V55.9763ZM5.25 45.25C5.25 41.1137 8.05375 37.75 11.5 37.75C14.9462 37.75 17.75 41.1137 17.75 45.25C17.75 48.8725 15.5988 51.9013 12.75 52.5988V44H10.25V52.5988C7.40125 51.9013 5.25 48.8725 5.25 45.25ZM2.75 62.75C2.75 59.9925 4.4325 57.75 6.5 57.75C8.5675 57.75 10.25 59.9925 10.25 62.75C10.25 65.5075 8.5675 67.75 6.5 67.75C4.4325 67.75 2.75 65.5075 2.75 62.75ZM7.75 70.0988C8.675 69.8725 9.5225 69.3938 10.25 68.7363V75.25H7.75V70.0988Z" fill="white"/>
<path d="M45.25 15.25H37.75V25.25H45.25V15.25ZM42.75 22.75H40.25V17.75H42.75V22.75Z" fill="white"/>
<path d="M45.25 27.75H37.75V37.75H45.25V27.75ZM42.75 35.25H40.25V30.25H42.75V35.25Z" fill="white"/>
<path d="M45.25 40.25H37.75V50.25H45.25V40.25ZM42.75 47.75H40.25V42.75H42.75V47.75Z" fill="white"/>
<path d="M45.25 52.75H37.75V62.75H45.25V52.75ZM42.75 60.25H40.25V55.25H42.75V60.25Z" fill="white"/>
<path d="M55.25 15.25H47.75V25.25H55.25V15.25ZM52.75 22.75H50.25V17.75H52.75V22.75Z" fill="white"/>
<path d="M17.75 22.75H20.25V25.25H17.75V22.75Z" fill="white"/>
<path d="M22.75 22.75H25.25V25.25H22.75V22.75Z" fill="white"/>
<path d="M27.75 22.75H30.25V25.25H27.75V22.75Z" fill="white"/>
<path d="M17.75 27.75H20.25V30.25H17.75V27.75Z" fill="white"/>
<path d="M22.75 27.75H25.25V30.25H22.75V27.75Z" fill="white"/>
<path d="M27.75 27.75H30.25V30.25H27.75V27.75Z" fill="white"/>
<path d="M22.75 32.75H25.25V35.25H22.75V32.75Z" fill="white"/>
<path d="M17.75 32.75H20.25V35.25H17.75V32.75Z" fill="white"/>
<path d="M27.75 32.75H30.25V35.25H27.75V32.75Z" fill="white"/>
<path d="M27.75 37.75H30.25V40.25H27.75V37.75Z" fill="white"/>
</svg>
