<svg width="18" height="16" viewBox="0 0 18 16" fill="none" xmlns="http://www.w3.org/2000/svg">
<path d="M17.2252 5.00925L17.2273 5.03311L17.231 5.05678C17.2324 5.06565 17.2361 5.09296 17.24 5.14064C17.2686 5.49561 17.2409 6.01144 17.0914 6.67391C16.812 7.91079 16.1056 9.03004 14.7972 10.3518L8.98763 15.2481L8.98761 15.2481L8.98759 15.2481C8.98751 15.2482 8.98722 15.2484 8.98607 15.2488C8.98452 15.2494 8.98182 15.25 8.97835 15.25C8.97488 15.25 8.97221 15.2494 8.97069 15.2488C8.96957 15.2484 8.96932 15.2482 8.96927 15.2481L8.96926 15.2481L8.96924 15.2481L3.18094 10.3259C2.04664 9.33 1.25384 8.05563 0.916208 6.67228C0.754246 6.00866 0.72849 5.49915 0.763946 5.1514C0.767468 5.11686 0.770946 5.09133 0.773623 5.07449L0.77725 5.05168L0.779467 5.02868C1.01731 2.56088 2.83627 0.75 5.09481 0.75C6.4218 0.75 7.58926 1.35035 8.37072 2.34916L8.95251 3.09278L9.54521 2.35784C10.3472 1.36339 11.5719 0.75 12.9131 0.75C15.1827 0.75 17.0031 2.57719 17.2252 5.00925Z" fill="white" stroke="black" stroke-width="1.5"/>
</svg>
