<svg width="60" height="52" viewBox="0 0 60 52" fill="none" xmlns="http://www.w3.org/2000/svg">
<path d="M57.2465 5.18409L46.8049 0.833971C45.6595 0.356901 44.3458 0.357018 43.2005 0.834088L38.1872 2.92225C37.7391 3.10905 37.5271 3.6235 37.7138 4.07163C37.9005 4.51975 38.4149 4.73186 38.8632 4.54506L43.8765 2.45678C44.5919 2.15866 45.413 2.15854 46.129 2.45667L56.5701 6.80655C57.5856 7.23018 58.242 8.1828 58.242 9.23315V46.821C58.242 48.2827 56.9866 49.4718 55.4436 49.4718H54.0186C53.5331 49.4718 53.1397 49.8652 53.1397 50.3507C53.1397 50.8362 53.5331 51.2296 54.0186 51.2296H55.4436C57.9558 51.2296 59.9998 49.252 59.9998 46.821V9.23315C59.9998 7.47112 58.9191 5.88182 57.2465 5.18409Z" fill="#9B38DC"/>
<path d="M50.1879 49.472H35.4199C36.028 48.7808 36.3609 47.9039 36.3609 46.9759C36.3609 46.0497 36.0257 45.2009 35.4709 44.5428C35.8207 44.3643 36.1446 44.1308 36.4305 43.845C37.1445 43.1309 37.5375 42.1816 37.5375 41.1716C37.5375 40.2087 37.1752 39.3294 36.5804 38.6612C36.8749 38.4944 37.1491 38.2877 37.3948 38.0418C38.1087 37.328 38.5018 36.3787 38.5018 35.3684C38.5018 34.4084 38.1417 33.5313 37.5504 32.8637C37.8498 32.6956 38.1287 32.4863 38.3788 32.2368C39.0922 31.5218 39.485 30.5727 39.485 29.564C39.485 27.4788 37.7891 25.7824 35.7045 25.7824H31.7634V9.23316C31.7634 8.18269 32.4198 7.23008 33.4349 6.80668L35.0334 6.14105C35.4816 5.95449 35.6936 5.44004 35.507 4.99179C35.3203 4.54367 34.8059 4.33133 34.3577 4.51824L32.7586 5.1841C31.0862 5.88172 30.0056 7.47113 30.0056 9.23316V25.7825H26.3333C27.5562 21.9181 27.4521 17.8851 26.025 13.2043C25.8082 12.4954 25.377 11.8883 24.7775 11.4485C24.1816 11.0114 23.4755 10.7802 22.7352 10.7802C21.7815 10.7802 20.8948 11.161 20.238 11.8525C19.5817 12.5439 19.2475 13.4491 19.2969 14.4011C19.5717 19.6859 17.134 21.5049 13.76 24.0227C12.6492 24.8516 11.4352 25.7581 10.242 26.8699V25.7179C10.242 25.2324 9.84855 24.839 9.36305 24.839H0.878906C0.393398 24.839 0 25.2324 0 25.7179V50.6449C0 51.1304 0.393398 51.5238 0.878906 51.5238H9.36328C9.84879 51.5238 10.2422 51.1304 10.2422 50.6449V48.4338C11.9115 48.5926 13.1307 48.9253 14.3153 49.8331C15.0929 50.4291 16.0515 50.7574 17.0145 50.7574H32.515C33.1482 51.0661 33.8503 51.2296 34.562 51.2296H50.1878C50.6733 51.2296 51.0667 50.8363 51.0667 50.3507C51.0667 49.8652 50.6733 49.472 50.1879 49.472ZM15.3846 48.4379C13.7273 47.1679 11.9562 46.8151 10.2422 46.6671V36.4044C10.2422 35.9189 9.84879 35.5255 9.36328 35.5255C8.87777 35.5255 8.48438 35.9189 8.48438 36.4044V49.7661H1.75781V26.597H8.48438V32.5748C8.48438 33.0603 8.87777 33.4537 9.36328 33.4537C9.84879 33.4537 10.2422 33.0603 10.2422 32.5748V29.3668C11.7124 27.7443 13.2867 26.5695 14.8116 25.4316C18.1876 22.9125 21.3763 20.5329 21.0527 14.31C21.0285 13.8441 21.192 13.4013 21.5133 13.063C21.8346 12.7244 22.2687 12.5381 22.7355 12.5381C23.0992 12.5381 23.4457 12.6514 23.7379 12.8659C24.0295 13.0798 24.2392 13.3747 24.3442 13.7179C25.7977 18.4857 25.7749 22.497 24.2726 26.3418C24.1669 26.6123 24.2017 26.9175 24.3654 27.1573C24.5291 27.3972 24.8007 27.5407 25.0911 27.5407H35.7047C36.8201 27.5407 37.7275 28.4485 37.7275 29.5645C37.7275 30.1041 37.5169 30.6124 37.1359 30.9943C36.7527 31.3766 36.2446 31.5871 35.7047 31.5871H32.0941C31.6086 31.5871 31.2152 31.9805 31.2152 32.4661C31.2152 32.9516 31.6086 33.345 32.0941 33.345H34.7215C35.8368 33.345 36.7441 34.2528 36.7441 35.3689C36.7441 35.9095 36.5339 36.4175 36.1519 36.7994C35.7701 37.1813 35.2621 37.3916 34.7215 37.3916H32.0941C31.6086 37.3916 31.2152 37.785 31.2152 38.2705C31.2152 38.756 31.6086 39.1494 32.0941 39.1494H33.7569C34.8723 39.1494 35.7797 40.0568 35.7797 41.172C35.7797 41.7125 35.5693 42.2206 35.1875 42.6025C34.8048 42.9853 34.2967 43.1959 33.7569 43.1959H32.5804H31.1296C30.6441 43.1959 30.2507 43.5893 30.2507 44.0748C30.2507 44.5603 30.6441 44.9537 31.1296 44.9537H32.5804C33.6957 44.9537 34.6031 45.8611 34.6031 46.9763C34.6031 47.5168 34.3925 48.0254 34.0117 48.4072C33.6547 48.7633 33.0908 48.9905 32.6688 48.998C32.6396 48.9985 17.0145 49.0002 17.0145 49.0002C16.436 48.9996 15.8571 48.8001 15.3846 48.4379Z" fill="#9B38DC"/>
<path d="M48.175 9.62362C48.175 7.77675 46.6724 6.27417 44.8255 6.27417C42.9787 6.27417 41.4761 7.77675 41.4761 9.62362C41.4761 11.4705 42.9787 12.9731 44.8255 12.9731C46.6724 12.9731 48.175 11.4705 48.175 9.62362ZM43.2339 9.62362C43.2339 8.74601 43.9479 8.03198 44.8255 8.03198C45.7031 8.03198 46.4172 8.74601 46.4172 9.62362C46.4172 10.5012 45.7031 11.2153 44.8255 11.2153C43.9479 11.2153 43.2339 10.5014 43.2339 9.62362Z" fill="#9B38DC"/>
<path d="M45.3746 39.6131H43.7983C42.9681 39.6131 42.2926 38.9375 42.2926 38.1072C42.2926 37.6217 41.8992 37.2283 41.4137 37.2283C40.9282 37.2283 40.5348 37.6217 40.5348 38.1072C40.5348 39.8764 41.9499 41.3201 43.7075 41.3685V43.3136C43.7075 43.7991 44.1009 44.1925 44.5864 44.1925C45.0719 44.1925 45.4653 43.7991 45.4653 43.3136V41.3685C47.223 41.3201 48.6382 39.8764 48.6382 38.1072V36.8905C48.6382 35.7616 47.9169 34.7689 46.8432 34.4199L42.8729 33.1303C42.5258 33.0174 42.2926 32.6966 42.2926 32.3316V30.5894C42.2926 29.9151 42.8412 29.3664 43.5155 29.3664H45.6576C46.3319 29.3664 46.8805 29.9151 46.8805 30.5894C46.8805 31.0749 47.2739 31.4683 47.7594 31.4683C48.2449 31.4683 48.6383 31.0749 48.6383 30.5894C48.6383 28.9459 47.3012 27.6086 45.6576 27.6086H45.4653V25.6659C45.4653 25.1804 45.0719 24.787 44.5864 24.787C44.1009 24.787 43.7075 25.1804 43.7075 25.6659V27.6086H43.5153C41.8719 27.6086 40.5347 28.9457 40.5347 30.5894V32.3316C40.5347 33.4605 41.256 34.4532 42.3296 34.8021L46.2998 36.0917C46.6471 36.2046 46.8803 36.5255 46.8803 36.8905V38.1072C46.8805 38.9375 46.2049 39.6131 45.3746 39.6131Z" fill="#9B38DC"/>
</svg>
