<svg width="108" height="21" viewBox="0 0 108 21" fill="none" xmlns="http://www.w3.org/2000/svg">
<path fill-rule="evenodd" clip-rule="evenodd" d="M59.3167 -3.03462e-05C59.4125 0.307099 59.3358 0.633425 59.2209 0.902164C58.0522 4.2614 56.826 7.58224 55.7147 10.9607C55.7722 10.9607 55.8297 10.9607 55.8872 10.9223C57.669 9.11789 59.4699 7.3135 61.2709 5.52831C63.1868 5.52831 65.1027 5.52831 67.0186 5.52831C66.9995 5.60509 67.0186 5.70107 66.942 5.75865C64.5663 7.98534 62.2863 10.2888 59.9489 12.5539C60.2171 13.8784 60.6386 15.1837 61.041 16.4698C61.0601 16.5466 61.0984 16.585 61.1751 16.585C61.5774 16.6426 61.9798 16.6234 62.4013 16.6234C63.4167 16.6426 64.4513 16.5466 65.4667 16.6042C65.7924 16.0859 65.9457 15.4908 66.1373 14.915C67.306 11.8053 68.3406 8.638 69.5093 5.50911C71.1187 5.50911 72.7089 5.50911 74.3183 5.50911C74.2991 5.73946 74.2225 5.96981 74.1267 6.20015C72.8813 9.63617 71.6935 13.0914 70.4864 16.5274C70.5056 16.5466 70.5439 16.6042 70.5631 16.6234C72.364 16.6234 74.165 16.6234 75.9468 16.6234C76.0426 16.6234 76.1384 16.585 76.2342 16.5466C77.0772 14.1279 77.9202 11.7093 78.7823 9.30984C77.7094 9.15628 76.6173 9.27145 75.5444 9.21386C75.9276 7.98534 76.4258 6.79522 76.8089 5.5475C77.901 5.47072 78.9931 5.43233 80.1043 5.45152C80.2767 5.25957 80.3342 4.99083 80.43 4.74129C81.0048 3.14805 81.5604 1.53562 82.1735 -0.0576172H86.7908C86.7908 0.115143 86.8292 0.287904 86.7525 0.460664C86.2927 1.65079 85.8712 2.84092 85.4497 4.03105C85.2964 4.49174 85.1048 4.93324 84.9707 5.39394C85.2581 5.45152 85.5455 5.43233 85.8329 5.43233C86.5801 5.43233 87.3081 5.41313 88.0362 5.47072C87.9979 5.79704 87.9021 6.08498 87.768 6.37291C87.4423 7.3135 87.1165 8.23489 86.7908 9.17547C85.7754 9.19467 84.7791 9.15628 83.7637 9.19467C83.438 9.46341 83.3805 9.90491 83.2656 10.2888C82.6142 12.2852 81.7711 14.2047 81.1197 16.2011C81.0814 16.297 81.0623 16.4122 81.0431 16.5082C82.48 16.5658 83.917 16.5466 85.3347 16.5466C85.7371 16.5274 86.1394 16.5466 86.5609 16.5082C87.6722 13.8592 88.5152 11.095 89.5498 8.40765C89.6839 8.02374 89.9138 7.69741 90.1437 7.37109C90.7376 6.60326 91.5231 5.93141 92.4811 5.66268C92.8451 5.5667 93.2283 5.52831 93.6115 5.5475C97.0601 5.45152 100.528 5.50911 103.977 5.48991C103.862 6.14257 103.593 6.75683 103.344 7.37109C103.191 7.77419 103.057 8.1965 102.923 8.5996C102.042 11.2486 100.969 13.8208 100.145 16.489C102.329 16.5466 104.494 16.5466 106.678 16.585C107.119 16.585 107.559 16.585 108 16.6042C108 18.0055 108 19.3875 108 20.7888C104.685 20.808 101.371 20.7504 98.0564 20.7312C97.769 20.7312 97.4625 20.7696 97.1751 20.6736C96.4662 20.4625 95.8339 20.021 95.4124 19.4067C95.2975 19.234 95.1634 19.042 95.1442 18.8309C95.1059 18.5429 94.9718 18.2934 94.8951 18.0247C93.8989 18.9076 93.0176 19.925 92.0213 20.7888C90.9292 20.7888 89.818 20.9424 88.7451 20.6928C88.2278 20.5777 87.7296 20.3473 87.3273 19.9634C86.7717 19.4643 86.5993 18.6965 86.3885 18.0055C85.5647 18.7157 84.8558 19.5411 84.0894 20.3089C83.917 20.4817 83.7445 20.6736 83.5529 20.808C82.9782 20.8272 82.3842 20.8464 81.8095 20.808C80.6791 20.808 79.5487 20.7696 78.4183 20.7696C78.1118 20.7696 77.8244 20.6353 77.5753 20.5009C77.0388 20.213 76.579 19.7715 76.2916 19.234C76.0809 18.8501 76.0426 18.4278 75.8701 18.0438C75.6594 18.1398 75.5253 18.3126 75.3528 18.4662C74.529 19.2148 73.7818 20.0402 72.9963 20.808C72.7664 20.904 72.479 20.7888 72.2682 20.9424H68.149C67.9574 20.7888 67.7084 20.808 67.4784 20.7504C66.7504 20.5585 66.1181 20.0402 65.7158 19.4067C65.4667 19.0036 65.4476 18.4853 65.2751 18.063C64.5279 18.7349 63.8382 19.4643 63.1293 20.1554C62.8994 20.3665 62.7078 20.6161 62.4779 20.8272C62.3055 20.8848 62.0947 20.7696 61.9606 20.9616H57.4774C57.4199 20.8464 57.3624 20.7312 57.3624 20.5969C57.3624 20.3281 57.2283 20.0978 57.1325 19.8674C56.5194 17.468 55.9063 15.0685 55.1208 12.7267C54.546 14.0512 54.1437 15.4332 53.6456 16.7769C53.1474 18.1782 52.6301 19.5603 52.1511 20.9616H47.3997C47.3997 20.7888 47.3805 20.5969 47.4572 20.4433C47.6487 19.9442 47.8403 19.4643 47.9936 18.9652C48.0511 18.7541 48.1277 18.5621 48.1469 18.351C48.0894 18.3702 48.0319 18.4086 47.9936 18.447C47.1506 19.2724 46.3076 20.0786 45.5412 20.9808H42.2459C42.1501 20.9232 42.0543 20.8464 41.9393 20.8272C41.2304 20.712 40.5407 20.3857 40.1192 19.7906C39.7743 19.2916 39.5444 18.7157 39.487 18.1206C39.4678 18.1206 39.4486 18.1014 39.4486 18.1014C38.4332 18.9652 37.571 20.0018 36.6706 20.9808H33.5093C33.2602 20.808 32.9537 20.808 32.7046 20.6736C32.0532 20.3473 31.5551 19.7715 31.2485 19.0996C31.1336 18.7925 31.0186 18.4662 31.0186 18.1398C30.8079 18.159 30.7312 18.3702 30.5971 18.4853C29.8116 19.3108 28.9686 20.0978 28.2214 20.9808H20.7493C20.9026 20.3281 21.1708 19.6947 21.3816 19.0612C22.4737 15.9899 23.5082 12.9186 24.5812 9.84732C23.3933 9.78973 22.1863 9.82812 20.9984 9.80893C20.347 11.3446 19.868 12.957 19.3124 14.531C18.5269 16.681 17.7797 18.8309 17.0133 20.9808H12.2235C12.3002 20.6928 12.3385 20.4049 12.4534 20.1362C14.0436 15.8364 15.4039 11.4598 17.0325 7.17913C16.975 7.08315 16.86 7.04476 16.7451 7.04476C15.653 7.02556 14.5609 7.10235 13.4689 7.10235C13.4114 7.19832 13.3348 7.27511 13.2773 7.37109C11.7062 11.9204 9.9819 16.4314 8.43002 20.9808H3.48696C3.52528 20.7888 3.54444 20.5969 3.60192 20.4049C5.47951 15.1837 7.49122 9.98169 9.25386 4.70289C6.16924 4.6645 3.08462 4.6837 0 4.6837V0.287904C1.66684 0.287904 3.31453 0.268708 4.98137 0.268708C6.24588 0.230317 7.51038 0.268708 8.79404 0.249513C10.3842 0.268708 11.9936 0.230317 13.603 0.230317C14.2927 0.249513 15.0016 0.211121 15.6913 0.211121C15.6147 0.844577 15.3273 1.42045 15.0974 2.01551C15.0016 2.26505 14.9058 2.53379 14.8866 2.80253C15.0016 2.82172 15.1166 2.86012 15.2315 2.86012C17.8946 2.86012 20.5769 2.86012 23.24 2.86012C23.2592 3.34001 22.991 3.74311 22.8568 4.18461C22.7036 4.58772 22.6269 5.01002 22.4737 5.39394C22.4545 5.45152 22.4353 5.50911 22.4353 5.5667C22.512 5.58589 22.6078 5.58589 22.6844 5.58589C25.3858 5.58589 28.0873 5.58589 30.8079 5.58589C29.6009 9.30984 28.1448 12.9762 26.9569 16.7002C28.298 16.7385 29.6392 16.7193 30.9611 16.7193C31.1336 16.7385 31.1911 16.5658 31.2485 16.4506C32.2257 13.6289 33.2028 10.7879 34.3332 8.02374C34.7163 7.25591 35.3294 6.62246 36.0575 6.20015C36.843 5.73946 37.7818 5.5475 38.6823 5.60509C40.7898 5.60509 42.9164 5.5667 45.0239 5.5667C46.1735 5.52831 47.3422 5.5667 48.4917 5.5667C47.2847 9.0603 46.0394 12.5347 44.8515 16.0283C44.794 16.2395 44.6982 16.4314 44.6599 16.6426C45.9819 16.6234 47.323 16.6426 48.645 16.6234C49.0857 15.9515 49.1815 15.1645 49.5263 14.4543C51.2698 9.65536 52.9175 4.79887 54.7185 -3.03462e-05H59.3167ZM38.4524 9.88571C37.5902 12.1508 36.728 14.4159 36.0766 16.7577C37.3028 16.7577 38.5482 16.7769 39.7743 16.7385C40.2342 15.3949 40.7131 14.0704 41.173 12.7267C41.4795 11.7861 41.9393 10.8839 42.0926 9.88571C40.9047 9.80893 39.6786 9.82812 38.4524 9.88571ZM93.8606 10.1161C93.4391 11.2102 93.0559 12.3236 92.6344 13.4369C92.3278 14.5886 91.7722 15.6444 91.4848 16.7961C92.7302 16.7961 93.9755 16.7961 95.2209 16.7961C95.9297 14.819 96.6386 12.861 97.3475 10.8839C97.4625 10.5576 97.6732 10.2504 97.6541 9.88571C96.447 9.88571 95.24 9.88571 94.033 9.88571C93.918 9.88571 93.8989 10.0393 93.8606 10.1161ZM71.3677 0.287904C70.9271 1.68918 70.199 3.01368 69.95 4.49174C71.5593 4.49174 73.1687 4.49174 74.7781 4.49174C75.008 3.85829 75.2379 3.20564 75.4678 2.57218C75.6594 1.80436 76.1384 1.11332 76.1958 0.287904C74.5865 0.287904 72.9771 0.287904 71.3677 0.287904Z" fill="#EE3439"/>
</svg>
