<svg width="86" height="80" viewBox="0 0 86 80" fill="none" xmlns="http://www.w3.org/2000/svg">
<path d="M82.853 41.3189C82.8254 40.9601 82.6633 40.6249 82.3992 40.3803C82.1351 40.1358 81.7885 40 81.4285 40H60.9303L59.9982 21.3572C59.9799 20.9911 59.8215 20.6461 59.556 20.3935C59.2904 20.1409 58.9379 20 58.5714 20H48.5714V12.8572C48.5721 10.8001 48.0791 8.77286 47.1337 6.94588C46.1883 5.1189 44.8182 3.54553 43.1385 2.35798C41.4588 1.17044 39.5186 0.403421 37.4809 0.12138C35.4433 -0.160662 33.3677 0.050515 31.4286 0.737165C29.4895 0.050515 27.4139 -0.160662 25.3762 0.12138C23.3385 0.403421 21.3983 1.17044 19.7186 2.35798C18.0389 3.54553 16.6688 5.1189 15.7234 6.94588C14.778 8.77286 14.285 10.8001 14.2857 12.8572V20H4.28571C3.9192 20 3.5667 20.1409 3.30114 20.3935C3.03557 20.6461 2.87725 20.9911 2.85893 21.3572L0.00178692 78.5C-0.00789394 78.6934 0.0218348 78.8867 0.0891676 79.0682C0.1565 79.2498 0.260032 79.4157 0.393473 79.556C0.526915 79.6963 0.687481 79.808 0.86542 79.8843C1.04336 79.9606 1.23495 80 1.42857 80H84.2857C84.4825 80 84.6773 79.9593 84.8577 79.8805C85.038 79.8017 85.2002 79.6865 85.334 79.5421C85.4677 79.3977 85.5702 79.2271 85.6349 79.0412C85.6996 78.8553 85.7253 78.6581 85.7102 78.4618L82.853 41.3189ZM78.5714 72.5754L81.6164 77.1429H75.5271L78.5714 72.5754ZM82.4421 73.2305L79.9575 69.5038L77.2928 42.8572H80.1057L82.4421 73.2305ZM74.4214 42.8572L77.1 69.6332L73.9643 74.3357L71.5427 42.8572H74.4214ZM58.0696 40H55.3809L54.3723 22.8572H57.2116L58.0696 40ZM51.5102 22.8572L52.5187 40H49.5009L48.6437 22.8572H51.5102ZM35.7143 2.85716C38.3655 2.86019 40.9073 3.91473 42.782 5.78944C44.6567 7.66414 45.7112 10.2059 45.7143 12.8572V20H40V12.8572C40 10.9418 39.5714 9.05066 38.7455 7.32245C37.9197 5.59424 36.7176 4.07274 35.2273 2.86949C35.3887 2.86181 35.5509 2.85716 35.7143 2.85716ZM31.4286 3.82395C33.1371 4.63602 34.5807 5.91551 35.592 7.51422C36.6033 9.11293 37.141 10.9654 37.1428 12.8572V20H25.7143V12.8572C25.7161 10.9654 26.2538 9.11293 27.2651 7.51422C28.2765 5.91551 29.72 4.63602 31.4286 3.82395ZM17.1429 12.8572C17.1459 10.2059 18.2004 7.66414 20.0751 5.78944C21.9498 3.91473 24.4916 2.86019 27.1428 2.85716C27.3062 2.85716 27.4684 2.86181 27.6298 2.86949C26.1395 4.07271 24.9374 5.59421 24.1115 7.32242C23.2857 9.05064 22.8571 10.9418 22.8571 12.8572V20H17.1429V12.8572ZM34.3914 77.1429H2.93036L5.64464 22.8572H14.2857V32.0927L10.6361 34.5257C10.4404 34.6562 10.28 34.8329 10.169 35.0403C10.0581 35.2476 10 35.4791 10 35.7143V47.1429C10 47.5217 10.1505 47.8851 10.4184 48.153C10.6863 48.4209 11.0497 48.5714 11.4286 48.5714H20C20.3789 48.5714 20.7422 48.4209 21.0101 48.153C21.2781 47.8851 21.4286 47.5217 21.4286 47.1429V35.7143C21.4286 35.4791 21.3705 35.2476 21.2595 35.0403C21.1486 34.8329 20.9882 34.6562 20.7925 34.5257L17.1429 32.0927V22.8572H37.1428V27.1429C37.1428 27.5218 37.2934 27.8851 37.5613 28.153C37.8292 28.4209 38.1925 28.5714 38.5714 28.5714C38.9503 28.5714 39.3137 28.4209 39.5816 28.153C39.8495 27.8851 40 27.5218 40 27.1429V22.8572H45.7839L46.6411 40H38.5714C38.2115 40 37.8648 40.1358 37.6007 40.3803C37.3366 40.6249 37.1746 40.9601 37.147 41.3189L34.3914 77.1429ZM15.7143 34.5741L18.5714 36.4788V45.7143H12.8571V36.4788L15.7143 34.5741ZM39.8943 42.8572H68.6771L71.3144 77.1429H37.257L39.8943 42.8572Z" fill="white"/>
<path d="M61.4286 48.5713C61.0498 48.5713 60.6864 48.7218 60.4185 48.9897C60.1506 49.2576 60.0001 49.621 60.0001 49.9999V61.4284C59.9988 62.5647 59.5469 63.654 58.7434 64.4575C57.94 65.2609 56.8506 65.7129 55.7144 65.7141H52.8572C51.721 65.7129 50.6316 65.2609 49.8282 64.4575C49.0247 63.654 48.5728 62.5647 48.5715 61.4284V49.9999C48.5715 49.621 48.421 49.2576 48.1531 48.9897C47.8852 48.7218 47.5218 48.5713 47.1429 48.5713C46.764 48.5713 46.4007 48.7218 46.1328 48.9897C45.8649 49.2576 45.7144 49.621 45.7144 49.9999V61.4284C45.7165 63.3222 46.4697 65.1378 47.8088 66.4768C49.1479 67.8159 50.9635 68.5692 52.8572 68.5713H55.7144C57.6081 68.5692 59.4237 67.8159 60.7628 66.4768C62.1019 65.1378 62.8551 63.3222 62.8572 61.4284V49.9999C62.8572 49.621 62.7067 49.2576 62.4388 48.9897C62.1709 48.7218 61.8075 48.5713 61.4286 48.5713Z" fill="white"/>
</svg>
