<svg width="12" height="12" viewBox="0 0 12 12" fill="none" xmlns="http://www.w3.org/2000/svg">
<path d="M11.9828 4.62329C11.9414 4.49601 11.8314 4.40324 11.699 4.38402L7.97896 3.84344L6.31525 0.472503C6.25605 0.352503 6.13383 0.276543 6.00002 0.276543C5.86619 0.276543 5.74399 0.352503 5.68476 0.472503L4.02099 3.84344L0.301004 4.38402C0.168606 4.40324 0.058567 4.49601 0.0172234 4.62327C-0.0241436 4.75056 0.0103562 4.89027 0.106192 4.98367L2.79793 7.60758L2.16259 11.3126C2.13995 11.4445 2.19418 11.5778 2.30244 11.6565C2.36368 11.701 2.43622 11.7236 2.50911 11.7236C2.56508 11.7236 2.62124 11.7103 2.67266 11.6832L6 9.93391L9.3272 11.6832C9.44567 11.7455 9.58918 11.7351 9.69744 11.6565C9.80569 11.5778 9.85995 11.4445 9.83733 11.3126L9.20178 7.60758L11.8938 4.98364C11.9896 4.89027 12.0242 4.75056 11.9828 4.62329Z" fill="#9B38DC"/>
</svg>
