<svg width="60" height="60" viewBox="0 0 60 60" fill="none" xmlns="http://www.w3.org/2000/svg">
<path d="M42.9079 23.4418L42.9079 23.4419L27.1847 39.1656C27.1847 39.1656 27.1846 39.1656 27.1846 39.1656C26.4643 39.8854 25.2973 39.8854 24.577 39.1657C24.577 39.1656 24.577 39.1656 24.5769 39.1656L17.0921 31.6803L17.0921 31.6802C16.3719 30.9604 16.3719 29.7931 17.0921 29.0733L17.0922 29.0731C17.812 28.353 18.9794 28.353 19.6992 29.0731L19.6992 29.0732L25.527 34.901L25.8806 35.2545L26.2341 34.901L40.3002 20.8344C41.0205 20.1145 42.1881 20.1146 42.9079 20.8344C43.6282 21.5547 43.628 22.7221 42.9079 23.4418ZM59.5 30C59.5 46.3063 46.3041 59.5 30 59.5C13.6937 59.5 0.5 46.3041 0.5 30C0.5 13.6937 13.6959 0.5 30 0.5C46.3063 0.5 59.5 13.6959 59.5 30ZM55.8125 30C55.8125 15.7323 44.2658 4.1875 30 4.1875C15.7323 4.1875 4.1875 15.7342 4.1875 30C4.1875 44.2677 15.7342 55.8125 30 55.8125C44.2677 55.8125 55.8125 44.2658 55.8125 30Z" fill="#9B38DC" stroke="white"/>
</svg>
